<mxfile host="app.diagrams.net" modified="2021-09-11T19:18:23.268Z" agent="5.0 (Windows NT 10.0; Win64; x64) AppleWebKit/537.36 (KHTML, like Gecko) Chrome/92.0.4515.159 YaBrowser/21.8.2.381 Yowser/2.5 Safari/537.36" etag="KE7vMuWo5-n5U_59D3Tk" version="15.1.4" type="github">
  <diagram id="Rz3GIVtquo-JVCMN12t_" name="Page-1">
    <mxGraphModel dx="1384" dy="850" grid="1" gridSize="10" guides="1" tooltips="1" connect="1" arrows="1" fold="1" page="1" pageScale="1" pageWidth="827" pageHeight="1169" math="0" shadow="0">
      <root>
        <mxCell id="0" />
        <mxCell id="1" parent="0" />
        <mxCell id="J84wWIYpIRQKEK9uiSm3-2" value="users" style="shape=table;startSize=30;container=1;collapsible=0;childLayout=tableLayout;fontStyle=1;align=center;pointerEvents=1;" parent="1" vertex="1">
          <mxGeometry x="80" y="800" width="650" height="110" as="geometry" />
        </mxCell>
        <mxCell id="J84wWIYpIRQKEK9uiSm3-3" value="" style="shape=partialRectangle;html=1;whiteSpace=wrap;collapsible=0;dropTarget=0;pointerEvents=0;fillColor=none;top=0;left=0;bottom=0;right=0;points=[[0,0.5],[1,0.5]];portConstraint=eastwest;" parent="J84wWIYpIRQKEK9uiSm3-2" vertex="1">
          <mxGeometry y="30" width="650" height="40" as="geometry" />
        </mxCell>
        <mxCell id="J84wWIYpIRQKEK9uiSm3-4" value="Id" style="shape=partialRectangle;html=1;whiteSpace=wrap;connectable=0;fillColor=none;top=0;left=0;bottom=0;right=0;overflow=hidden;pointerEvents=1;" parent="J84wWIYpIRQKEK9uiSm3-3" vertex="1">
          <mxGeometry width="80" height="40" as="geometry" />
        </mxCell>
        <mxCell id="J84wWIYpIRQKEK9uiSm3-5" value="name" style="shape=partialRectangle;html=1;whiteSpace=wrap;connectable=0;fillColor=none;top=0;left=0;bottom=0;right=0;overflow=hidden;pointerEvents=1;" parent="J84wWIYpIRQKEK9uiSm3-3" vertex="1">
          <mxGeometry x="80" width="120" height="40" as="geometry" />
        </mxCell>
        <mxCell id="J84wWIYpIRQKEK9uiSm3-6" value="display_name" style="shape=partialRectangle;html=1;whiteSpace=wrap;connectable=0;fillColor=none;top=0;left=0;bottom=0;right=0;overflow=hidden;pointerEvents=1;" parent="J84wWIYpIRQKEK9uiSm3-3" vertex="1">
          <mxGeometry x="200" width="130" height="40" as="geometry" />
        </mxCell>
        <mxCell id="J84wWIYpIRQKEK9uiSm3-16" value="country_id" style="shape=partialRectangle;html=1;whiteSpace=wrap;connectable=0;fillColor=none;top=0;left=0;bottom=0;right=0;overflow=hidden;pointerEvents=1;" parent="J84wWIYpIRQKEK9uiSm3-3" vertex="1">
          <mxGeometry x="330" width="120" height="40" as="geometry" />
        </mxCell>
        <mxCell id="J84wWIYpIRQKEK9uiSm3-19" value="phone" style="shape=partialRectangle;html=1;whiteSpace=wrap;connectable=0;fillColor=none;top=0;left=0;bottom=0;right=0;overflow=hidden;pointerEvents=1;" parent="J84wWIYpIRQKEK9uiSm3-3" vertex="1">
          <mxGeometry x="450" width="110" height="40" as="geometry" />
        </mxCell>
        <mxCell id="J84wWIYpIRQKEK9uiSm3-22" value="email" style="shape=partialRectangle;html=1;whiteSpace=wrap;connectable=0;fillColor=none;top=0;left=0;bottom=0;right=0;overflow=hidden;pointerEvents=1;" parent="J84wWIYpIRQKEK9uiSm3-3" vertex="1">
          <mxGeometry x="560" width="90" height="40" as="geometry" />
        </mxCell>
        <mxCell id="J84wWIYpIRQKEK9uiSm3-7" value="" style="shape=partialRectangle;html=1;whiteSpace=wrap;collapsible=0;dropTarget=0;pointerEvents=0;fillColor=none;top=0;left=0;bottom=0;right=0;points=[[0,0.5],[1,0.5]];portConstraint=eastwest;" parent="J84wWIYpIRQKEK9uiSm3-2" vertex="1">
          <mxGeometry y="70" width="650" height="40" as="geometry" />
        </mxCell>
        <mxCell id="J84wWIYpIRQKEK9uiSm3-8" value="serial pk constraint" style="shape=partialRectangle;html=1;whiteSpace=wrap;connectable=0;fillColor=none;top=0;left=0;bottom=0;right=0;overflow=hidden;pointerEvents=1;" parent="J84wWIYpIRQKEK9uiSm3-7" vertex="1">
          <mxGeometry width="80" height="40" as="geometry" />
        </mxCell>
        <mxCell id="J84wWIYpIRQKEK9uiSm3-9" value="text not null" style="shape=partialRectangle;html=1;whiteSpace=wrap;connectable=0;fillColor=none;top=0;left=0;bottom=0;right=0;overflow=hidden;pointerEvents=1;" parent="J84wWIYpIRQKEK9uiSm3-7" vertex="1">
          <mxGeometry x="80" width="120" height="40" as="geometry" />
        </mxCell>
        <mxCell id="J84wWIYpIRQKEK9uiSm3-10" value="text unique" style="shape=partialRectangle;html=1;whiteSpace=wrap;connectable=0;fillColor=none;top=0;left=0;bottom=0;right=0;overflow=hidden;pointerEvents=1;" parent="J84wWIYpIRQKEK9uiSm3-7" vertex="1">
          <mxGeometry x="200" width="130" height="40" as="geometry" />
        </mxCell>
        <mxCell id="J84wWIYpIRQKEK9uiSm3-17" value="text" style="shape=partialRectangle;html=1;whiteSpace=wrap;connectable=0;fillColor=none;top=0;left=0;bottom=0;right=0;overflow=hidden;pointerEvents=1;" parent="J84wWIYpIRQKEK9uiSm3-7" vertex="1">
          <mxGeometry x="330" width="120" height="40" as="geometry" />
        </mxCell>
        <mxCell id="J84wWIYpIRQKEK9uiSm3-20" value="text" style="shape=partialRectangle;html=1;whiteSpace=wrap;connectable=0;fillColor=none;top=0;left=0;bottom=0;right=0;overflow=hidden;pointerEvents=1;" parent="J84wWIYpIRQKEK9uiSm3-7" vertex="1">
          <mxGeometry x="450" width="110" height="40" as="geometry" />
        </mxCell>
        <mxCell id="J84wWIYpIRQKEK9uiSm3-23" value="text" style="shape=partialRectangle;html=1;whiteSpace=wrap;connectable=0;fillColor=none;top=0;left=0;bottom=0;right=0;overflow=hidden;pointerEvents=1;" parent="J84wWIYpIRQKEK9uiSm3-7" vertex="1">
          <mxGeometry x="560" width="90" height="40" as="geometry" />
        </mxCell>
        <mxCell id="HgxCiPOgafSefp3VaVC9-189" style="edgeStyle=orthogonalEdgeStyle;rounded=0;jumpStyle=none;orthogonalLoop=1;jettySize=auto;html=1;exitX=0.75;exitY=0;exitDx=0;exitDy=0;fontFamily=Georgia;fontSize=19;startArrow=ERzeroToMany;startFill=1;endArrow=ERone;endFill=0;strokeWidth=2;strokeColor=#FF3333;" edge="1" parent="1" source="HgxCiPOgafSefp3VaVC9-118" target="J84wWIYpIRQKEK9uiSm3-7">
          <mxGeometry relative="1" as="geometry">
            <mxPoint x="305" y="910" as="targetPoint" />
            <Array as="points">
              <mxPoint x="262" y="1310" />
              <mxPoint x="305" y="1310" />
            </Array>
          </mxGeometry>
        </mxCell>
        <mxCell id="HgxCiPOgafSefp3VaVC9-192" style="edgeStyle=orthogonalEdgeStyle;rounded=0;jumpStyle=none;orthogonalLoop=1;jettySize=auto;html=1;exitX=0.234;exitY=1.005;exitDx=0;exitDy=0;fontFamily=Georgia;fontSize=19;startArrow=ERzeroToMany;startFill=1;endArrow=none;endFill=0;strokeWidth=2;exitPerimeter=0;strokeColor=#007FFF;" edge="1" parent="1" source="HgxCiPOgafSefp3VaVC9-126">
          <mxGeometry relative="1" as="geometry">
            <mxPoint x="82" y="2030" as="targetPoint" />
          </mxGeometry>
        </mxCell>
        <mxCell id="HgxCiPOgafSefp3VaVC9-118" value="likes" style="shape=table;startSize=30;container=1;collapsible=0;childLayout=tableLayout;fontStyle=1;align=center;pointerEvents=1;flipV=0;flipH=0;" vertex="1" parent="1">
          <mxGeometry y="1560" width="350" height="140" as="geometry" />
        </mxCell>
        <mxCell id="HgxCiPOgafSefp3VaVC9-119" value="" style="shape=partialRectangle;html=1;whiteSpace=wrap;collapsible=0;dropTarget=0;pointerEvents=0;fillColor=none;top=0;left=0;bottom=0;right=0;points=[[0,0.5],[1,0.5]];portConstraint=eastwest;" vertex="1" parent="HgxCiPOgafSefp3VaVC9-118">
          <mxGeometry y="30" width="350" height="40" as="geometry" />
        </mxCell>
        <mxCell id="HgxCiPOgafSefp3VaVC9-120" value="Id" style="shape=partialRectangle;html=1;whiteSpace=wrap;connectable=0;fillColor=none;top=0;left=0;bottom=0;right=0;overflow=hidden;pointerEvents=1;" vertex="1" parent="HgxCiPOgafSefp3VaVC9-119">
          <mxGeometry width="28" height="40" as="geometry" />
        </mxCell>
        <mxCell id="HgxCiPOgafSefp3VaVC9-123" value="owner_id" style="shape=partialRectangle;html=1;whiteSpace=wrap;connectable=0;fillColor=none;top=0;left=0;bottom=0;right=0;overflow=hidden;pointerEvents=1;" vertex="1" parent="HgxCiPOgafSefp3VaVC9-119">
          <mxGeometry x="28" width="102" height="40" as="geometry" />
        </mxCell>
        <mxCell id="HgxCiPOgafSefp3VaVC9-124" value="object_type" style="shape=partialRectangle;html=1;whiteSpace=wrap;connectable=0;fillColor=none;top=0;left=0;bottom=0;right=0;overflow=hidden;pointerEvents=1;" vertex="1" parent="HgxCiPOgafSefp3VaVC9-119">
          <mxGeometry x="130" width="140" height="40" as="geometry" />
        </mxCell>
        <mxCell id="HgxCiPOgafSefp3VaVC9-125" value="object_id" style="shape=partialRectangle;html=1;whiteSpace=wrap;connectable=0;fillColor=none;top=0;left=0;bottom=0;right=0;overflow=hidden;pointerEvents=1;" vertex="1" parent="HgxCiPOgafSefp3VaVC9-119">
          <mxGeometry x="270" width="80" height="40" as="geometry" />
        </mxCell>
        <mxCell id="HgxCiPOgafSefp3VaVC9-126" style="shape=partialRectangle;html=1;whiteSpace=wrap;collapsible=0;dropTarget=0;pointerEvents=0;fillColor=none;top=0;left=0;bottom=0;right=0;points=[[0,0.5],[1,0.5]];portConstraint=eastwest;" vertex="1" parent="HgxCiPOgafSefp3VaVC9-118">
          <mxGeometry y="70" width="350" height="70" as="geometry" />
        </mxCell>
        <mxCell id="HgxCiPOgafSefp3VaVC9-127" value="serial pk" style="shape=partialRectangle;html=1;whiteSpace=wrap;connectable=0;fillColor=none;top=0;left=0;bottom=0;right=0;overflow=hidden;pointerEvents=1;" vertex="1" parent="HgxCiPOgafSefp3VaVC9-126">
          <mxGeometry width="28" height="70" as="geometry" />
        </mxCell>
        <mxCell id="HgxCiPOgafSefp3VaVC9-130" value="integer reference users" style="shape=partialRectangle;html=1;whiteSpace=wrap;connectable=0;fillColor=none;top=0;left=0;bottom=0;right=0;overflow=hidden;pointerEvents=1;" vertex="1" parent="HgxCiPOgafSefp3VaVC9-126">
          <mxGeometry x="28" width="102" height="70" as="geometry" />
        </mxCell>
        <mxCell id="HgxCiPOgafSefp3VaVC9-131" value="text check(any [&#39;photo&#39;, &#39;video&#39;, &#39;comment&#39;] ) not null" style="shape=partialRectangle;html=1;whiteSpace=wrap;connectable=0;fillColor=none;top=0;left=0;bottom=0;right=0;overflow=hidden;pointerEvents=1;" vertex="1" parent="HgxCiPOgafSefp3VaVC9-126">
          <mxGeometry x="130" width="140" height="70" as="geometry" />
        </mxCell>
        <mxCell id="HgxCiPOgafSefp3VaVC9-132" value="&lt;span style=&quot;color: rgb(0 , 0 , 0) ; font-family: &amp;#34;helvetica&amp;#34; ; font-size: 12px ; font-style: normal ; font-weight: 400 ; letter-spacing: normal ; text-align: center ; text-indent: 0px ; text-transform: none ; word-spacing: 0px ; background-color: rgb(248 , 249 , 250) ; display: inline ; float: none&quot;&gt;integer not null&lt;/span&gt;" style="shape=partialRectangle;html=1;whiteSpace=wrap;connectable=0;fillColor=none;top=0;left=0;bottom=0;right=0;overflow=hidden;pointerEvents=1;" vertex="1" parent="HgxCiPOgafSefp3VaVC9-126">
          <mxGeometry x="270" width="80" height="70" as="geometry" />
        </mxCell>
        <UserObject label="&lt;pre&gt;&lt;font style=&quot;font-size: 57px&quot;&gt;New VK&lt;/font&gt;&lt;/pre&gt;" link="https://youtu.be/a0NjDx5UJsg?t=54" linkTarget="_blank" id="J84wWIYpIRQKEK9uiSm3-34">
          <mxCell style="rounded=1;whiteSpace=wrap;html=1;fontFamily=Georgia;fontStyle=2;horizontal=1;align=center;fillColor=#fff2cc;strokeColor=#D6AC49;" parent="1" vertex="1">
            <mxGeometry x="280" y="10" width="300" height="130" as="geometry" />
          </mxCell>
        </UserObject>
        <mxCell id="J84wWIYpIRQKEK9uiSm3-43" value="&lt;p style=&quot;line-height: 150%; font-size: 19px;&quot;&gt;&lt;font style=&quot;font-size: 19px;&quot;&gt;Концептуальное проектирование&lt;/font&gt;&lt;/p&gt;" style="text;html=1;align=center;verticalAlign=middle;whiteSpace=wrap;rounded=0;shadow=1;strokeColor=#d6b656;fillColor=#FFF6E6;fontFamily=Georgia;fontStyle=3;fontSize=19;" parent="1" vertex="1">
          <mxGeometry x="40" y="200" width="760" height="40" as="geometry" />
        </mxCell>
        <mxCell id="HgxCiPOgafSefp3VaVC9-7" style="edgeStyle=orthogonalEdgeStyle;rounded=0;orthogonalLoop=1;jettySize=auto;html=1;exitX=1;exitY=0.5;exitDx=0;exitDy=0;entryX=0.5;entryY=1;entryDx=0;entryDy=0;fontFamily=Georgia;fontSize=19;endArrow=ERzeroToMany;endFill=1;" edge="1" parent="1" source="J84wWIYpIRQKEK9uiSm3-47" target="HgxCiPOgafSefp3VaVC9-2">
          <mxGeometry relative="1" as="geometry" />
        </mxCell>
        <mxCell id="HgxCiPOgafSefp3VaVC9-9" style="edgeStyle=orthogonalEdgeStyle;rounded=0;orthogonalLoop=1;jettySize=auto;html=1;exitX=1;exitY=0.5;exitDx=0;exitDy=0;fontFamily=Georgia;fontSize=19;endArrow=ERzeroToMany;endFill=1;" edge="1" parent="1" source="J84wWIYpIRQKEK9uiSm3-47" target="HgxCiPOgafSefp3VaVC9-4">
          <mxGeometry relative="1" as="geometry" />
        </mxCell>
        <mxCell id="HgxCiPOgafSefp3VaVC9-10" style="edgeStyle=orthogonalEdgeStyle;rounded=0;orthogonalLoop=1;jettySize=auto;html=1;exitX=1;exitY=0.5;exitDx=0;exitDy=0;fontFamily=Georgia;fontSize=19;endArrow=ERzeroToMany;endFill=1;" edge="1" parent="1" source="J84wWIYpIRQKEK9uiSm3-47" target="J84wWIYpIRQKEK9uiSm3-48">
          <mxGeometry relative="1" as="geometry">
            <mxPoint x="447" y="320" as="targetPoint" />
          </mxGeometry>
        </mxCell>
        <mxCell id="HgxCiPOgafSefp3VaVC9-11" style="edgeStyle=orthogonalEdgeStyle;rounded=0;orthogonalLoop=1;jettySize=auto;html=1;exitX=1;exitY=0.5;exitDx=0;exitDy=0;fontFamily=Georgia;fontSize=19;endArrow=ERzeroToMany;endFill=1;entryX=0.5;entryY=1;entryDx=0;entryDy=0;startArrow=ERone;startFill=0;" edge="1" parent="1" source="J84wWIYpIRQKEK9uiSm3-47" target="HgxCiPOgafSefp3VaVC9-1">
          <mxGeometry relative="1" as="geometry" />
        </mxCell>
        <mxCell id="HgxCiPOgafSefp3VaVC9-15" style="edgeStyle=orthogonalEdgeStyle;rounded=0;orthogonalLoop=1;jettySize=auto;html=1;exitX=0.5;exitY=0;exitDx=0;exitDy=0;entryX=0.5;entryY=1;entryDx=0;entryDy=0;fontFamily=Georgia;fontSize=19;endArrow=ERzeroToMany;endFill=1;startArrow=ERone;startFill=0;" edge="1" parent="1" source="J84wWIYpIRQKEK9uiSm3-47" target="HgxCiPOgafSefp3VaVC9-5">
          <mxGeometry relative="1" as="geometry">
            <Array as="points">
              <mxPoint x="160" y="350" />
              <mxPoint x="160" y="350" />
            </Array>
          </mxGeometry>
        </mxCell>
        <mxCell id="HgxCiPOgafSefp3VaVC9-17" style="edgeStyle=orthogonalEdgeStyle;rounded=0;orthogonalLoop=1;jettySize=auto;html=1;exitX=0.5;exitY=1;exitDx=0;exitDy=0;entryX=0.583;entryY=0.015;entryDx=0;entryDy=0;entryPerimeter=0;fontFamily=Georgia;fontSize=19;endArrow=ERzeroToMany;endFill=1;startArrow=ERzeroToMany;startFill=1;" edge="1" parent="1" source="J84wWIYpIRQKEK9uiSm3-47" target="HgxCiPOgafSefp3VaVC9-16">
          <mxGeometry relative="1" as="geometry" />
        </mxCell>
        <mxCell id="J84wWIYpIRQKEK9uiSm3-47" value="User" style="rounded=1;whiteSpace=wrap;html=1;shadow=1;fontFamily=Georgia;fontSize=19;strokeColor=#D6AC49;fillColor=#FFF6E6;align=center;" parent="1" vertex="1">
          <mxGeometry x="100" y="400" width="120" height="60" as="geometry" />
        </mxCell>
        <mxCell id="HgxCiPOgafSefp3VaVC9-24" style="edgeStyle=orthogonalEdgeStyle;rounded=0;jumpStyle=none;orthogonalLoop=1;jettySize=auto;html=1;exitX=0.5;exitY=1;exitDx=0;exitDy=0;entryX=1;entryY=0.5;entryDx=0;entryDy=0;fontFamily=Georgia;fontSize=19;startArrow=ERzeroToMany;startFill=1;endArrow=none;endFill=0;" edge="1" parent="1" source="J84wWIYpIRQKEK9uiSm3-48" target="HgxCiPOgafSefp3VaVC9-4">
          <mxGeometry relative="1" as="geometry" />
        </mxCell>
        <mxCell id="HgxCiPOgafSefp3VaVC9-28" style="edgeStyle=orthogonalEdgeStyle;curved=1;rounded=0;jumpStyle=none;orthogonalLoop=1;jettySize=auto;html=1;exitX=0.25;exitY=0;exitDx=0;exitDy=0;entryX=1;entryY=0.75;entryDx=0;entryDy=0;fontFamily=Georgia;fontSize=19;startArrow=ERzeroToMany;startFill=1;endArrow=none;endFill=0;strokeColor=#FF3333;" edge="1" parent="1" source="J84wWIYpIRQKEK9uiSm3-48" target="HgxCiPOgafSefp3VaVC9-2">
          <mxGeometry relative="1" as="geometry">
            <Array as="points">
              <mxPoint x="710" y="400" />
              <mxPoint x="520" y="400" />
            </Array>
          </mxGeometry>
        </mxCell>
        <mxCell id="J84wWIYpIRQKEK9uiSm3-48" value="Comment" style="rounded=1;whiteSpace=wrap;html=1;shadow=1;fontFamily=Georgia;fontSize=19;strokeColor=#D6AC49;fillColor=#FFF6E6;align=center;" parent="1" vertex="1">
          <mxGeometry x="680" y="495" width="120" height="60" as="geometry" />
        </mxCell>
        <mxCell id="HgxCiPOgafSefp3VaVC9-19" style="rounded=0;orthogonalLoop=1;jettySize=auto;html=1;exitX=0.75;exitY=1;exitDx=0;exitDy=0;fontFamily=Georgia;fontSize=19;endArrow=none;endFill=0;jumpStyle=none;startArrow=ERzeroToMany;startFill=1;entryX=0.75;entryY=0;entryDx=0;entryDy=0;elbow=vertical;edgeStyle=orthogonalEdgeStyle;fillColor=#f8cecc;strokeColor=#FF3333;" edge="1" parent="1" source="HgxCiPOgafSefp3VaVC9-1" target="J84wWIYpIRQKEK9uiSm3-48">
          <mxGeometry relative="1" as="geometry">
            <mxPoint x="517" y="320" as="targetPoint" />
          </mxGeometry>
        </mxCell>
        <mxCell id="HgxCiPOgafSefp3VaVC9-21" style="edgeStyle=orthogonalEdgeStyle;rounded=0;jumpStyle=none;orthogonalLoop=1;jettySize=auto;html=1;exitX=0;exitY=0.5;exitDx=0;exitDy=0;entryX=1;entryY=0.5;entryDx=0;entryDy=0;fontFamily=Georgia;fontSize=19;startArrow=ERzeroToMany;startFill=1;endArrow=none;endFill=0;" edge="1" parent="1" source="HgxCiPOgafSefp3VaVC9-1" target="HgxCiPOgafSefp3VaVC9-2">
          <mxGeometry relative="1" as="geometry" />
        </mxCell>
        <mxCell id="HgxCiPOgafSefp3VaVC9-27" style="edgeStyle=orthogonalEdgeStyle;curved=1;rounded=0;jumpStyle=none;orthogonalLoop=1;jettySize=auto;html=1;exitX=0.25;exitY=1;exitDx=0;exitDy=0;entryX=0.75;entryY=0;entryDx=0;entryDy=0;fontFamily=Georgia;fontSize=19;startArrow=ERzeroToMany;startFill=1;endArrow=none;endFill=0;strokeColor=#FF3333;" edge="1" parent="1" source="HgxCiPOgafSefp3VaVC9-1" target="HgxCiPOgafSefp3VaVC9-4">
          <mxGeometry relative="1" as="geometry" />
        </mxCell>
        <mxCell id="HgxCiPOgafSefp3VaVC9-1" value="Like" style="rounded=1;whiteSpace=wrap;html=1;shadow=1;fontFamily=Georgia;fontSize=19;strokeColor=#D6AC49;fillColor=#FFF6E6;align=center;" vertex="1" parent="1">
          <mxGeometry x="660" y="280" width="120" height="60" as="geometry" />
        </mxCell>
        <mxCell id="HgxCiPOgafSefp3VaVC9-2" value="Photo" style="rounded=1;whiteSpace=wrap;html=1;shadow=1;fontFamily=Georgia;fontSize=19;strokeColor=#D6AC49;fillColor=#FFF6E6;align=center;" vertex="1" parent="1">
          <mxGeometry x="400" y="320" width="120" height="60" as="geometry" />
        </mxCell>
        <mxCell id="HgxCiPOgafSefp3VaVC9-4" value="Video" style="rounded=1;whiteSpace=wrap;html=1;shadow=1;fontFamily=Georgia;fontSize=19;strokeColor=#D6AC49;fillColor=#FFF6E6;align=center;" vertex="1" parent="1">
          <mxGeometry x="440" y="555" width="120" height="60" as="geometry" />
        </mxCell>
        <mxCell id="HgxCiPOgafSefp3VaVC9-5" value="friend" style="rounded=1;whiteSpace=wrap;html=1;shadow=1;fontFamily=Georgia;fontSize=19;strokeColor=#D6AC49;fillColor=#FFF6E6;align=center;" vertex="1" parent="1">
          <mxGeometry x="100" y="260" width="120" height="60" as="geometry" />
        </mxCell>
        <mxCell id="HgxCiPOgafSefp3VaVC9-29" style="edgeStyle=elbowEdgeStyle;rounded=0;jumpStyle=none;orthogonalLoop=1;jettySize=auto;html=1;exitX=1;exitY=0.25;exitDx=0;exitDy=0;entryX=0;entryY=0.5;entryDx=0;entryDy=0;fontFamily=Georgia;fontSize=19;startArrow=ERzeroToMany;startFill=1;endArrow=ERzeroToMany;endFill=1;strokeColor=#FF3333;" edge="1" parent="1" source="HgxCiPOgafSefp3VaVC9-16" target="HgxCiPOgafSefp3VaVC9-2">
          <mxGeometry relative="1" as="geometry" />
        </mxCell>
        <mxCell id="HgxCiPOgafSefp3VaVC9-32" style="edgeStyle=orthogonalEdgeStyle;rounded=0;jumpStyle=none;orthogonalLoop=1;jettySize=auto;html=1;exitX=1;exitY=0.75;exitDx=0;exitDy=0;entryX=0;entryY=0.75;entryDx=0;entryDy=0;fontFamily=Georgia;fontSize=19;startArrow=ERzeroToMany;startFill=1;endArrow=ERzeroToMany;endFill=1;strokeColor=#FF3333;" edge="1" parent="1" source="HgxCiPOgafSefp3VaVC9-16" target="HgxCiPOgafSefp3VaVC9-4">
          <mxGeometry relative="1" as="geometry" />
        </mxCell>
        <mxCell id="HgxCiPOgafSefp3VaVC9-16" value="group" style="rounded=1;whiteSpace=wrap;html=1;shadow=1;fontFamily=Georgia;fontSize=19;strokeColor=#D6AC49;fillColor=#FFF6E6;align=center;" vertex="1" parent="1">
          <mxGeometry x="90" y="555" width="120" height="60" as="geometry" />
        </mxCell>
        <mxCell id="HgxCiPOgafSefp3VaVC9-185" style="edgeStyle=orthogonalEdgeStyle;rounded=0;jumpStyle=none;orthogonalLoop=1;jettySize=auto;html=1;exitX=0.75;exitY=0;exitDx=0;exitDy=0;entryX=0.938;entryY=1;entryDx=0;entryDy=0;entryPerimeter=0;fontFamily=Georgia;fontSize=19;startArrow=ERzeroToMany;startFill=1;endArrow=ERzeroToMany;endFill=1;strokeColor=#FF3333;strokeWidth=2;" edge="1" parent="1" source="HgxCiPOgafSefp3VaVC9-33" target="J84wWIYpIRQKEK9uiSm3-7">
          <mxGeometry relative="1" as="geometry" />
        </mxCell>
        <mxCell id="HgxCiPOgafSefp3VaVC9-33" value="group" style="shape=table;startSize=30;container=1;collapsible=0;childLayout=tableLayout;fontStyle=1;align=center;pointerEvents=1;" vertex="1" parent="1">
          <mxGeometry x="497" y="1000" width="330" height="110" as="geometry" />
        </mxCell>
        <mxCell id="HgxCiPOgafSefp3VaVC9-34" value="" style="shape=partialRectangle;html=1;whiteSpace=wrap;collapsible=0;dropTarget=0;pointerEvents=0;fillColor=none;top=0;left=0;bottom=0;right=0;points=[[0,0.5],[1,0.5]];portConstraint=eastwest;" vertex="1" parent="HgxCiPOgafSefp3VaVC9-33">
          <mxGeometry y="30" width="330" height="40" as="geometry" />
        </mxCell>
        <mxCell id="HgxCiPOgafSefp3VaVC9-35" value="Id" style="shape=partialRectangle;html=1;whiteSpace=wrap;connectable=0;fillColor=none;top=0;left=0;bottom=0;right=0;overflow=hidden;pointerEvents=1;" vertex="1" parent="HgxCiPOgafSefp3VaVC9-34">
          <mxGeometry width="35" height="40" as="geometry" />
        </mxCell>
        <mxCell id="HgxCiPOgafSefp3VaVC9-37" value="display_name" style="shape=partialRectangle;html=1;whiteSpace=wrap;connectable=0;fillColor=none;top=0;left=0;bottom=0;right=0;overflow=hidden;pointerEvents=1;" vertex="1" parent="HgxCiPOgafSefp3VaVC9-34">
          <mxGeometry x="35" width="109" height="40" as="geometry" />
        </mxCell>
        <mxCell id="HgxCiPOgafSefp3VaVC9-40" value="title" style="shape=partialRectangle;html=1;whiteSpace=wrap;connectable=0;fillColor=none;top=0;left=0;bottom=0;right=0;overflow=hidden;pointerEvents=1;" vertex="1" parent="HgxCiPOgafSefp3VaVC9-34">
          <mxGeometry x="144" width="64" height="40" as="geometry" />
        </mxCell>
        <mxCell id="HgxCiPOgafSefp3VaVC9-55" value="owner_id" style="shape=partialRectangle;html=1;whiteSpace=wrap;connectable=0;fillColor=none;top=0;left=0;bottom=0;right=0;overflow=hidden;pointerEvents=1;" vertex="1" parent="HgxCiPOgafSefp3VaVC9-34">
          <mxGeometry x="208" width="122" height="40" as="geometry" />
        </mxCell>
        <mxCell id="HgxCiPOgafSefp3VaVC9-67" style="shape=partialRectangle;html=1;whiteSpace=wrap;collapsible=0;dropTarget=0;pointerEvents=0;fillColor=none;top=0;left=0;bottom=0;right=0;points=[[0,0.5],[1,0.5]];portConstraint=eastwest;" vertex="1" parent="HgxCiPOgafSefp3VaVC9-33">
          <mxGeometry y="70" width="330" height="40" as="geometry" />
        </mxCell>
        <mxCell id="HgxCiPOgafSefp3VaVC9-68" value="serial pk" style="shape=partialRectangle;html=1;whiteSpace=wrap;connectable=0;fillColor=none;top=0;left=0;bottom=0;right=0;overflow=hidden;pointerEvents=1;" vertex="1" parent="HgxCiPOgafSefp3VaVC9-67">
          <mxGeometry width="35" height="40" as="geometry" />
        </mxCell>
        <mxCell id="HgxCiPOgafSefp3VaVC9-69" value="text unique" style="shape=partialRectangle;html=1;whiteSpace=wrap;connectable=0;fillColor=none;top=0;left=0;bottom=0;right=0;overflow=hidden;pointerEvents=1;" vertex="1" parent="HgxCiPOgafSefp3VaVC9-67">
          <mxGeometry x="35" width="109" height="40" as="geometry" />
        </mxCell>
        <mxCell id="HgxCiPOgafSefp3VaVC9-70" value="text" style="shape=partialRectangle;html=1;whiteSpace=wrap;connectable=0;fillColor=none;top=0;left=0;bottom=0;right=0;overflow=hidden;pointerEvents=1;" vertex="1" parent="HgxCiPOgafSefp3VaVC9-67">
          <mxGeometry x="144" width="64" height="40" as="geometry" />
        </mxCell>
        <mxCell id="HgxCiPOgafSefp3VaVC9-71" value="integer reference users" style="shape=partialRectangle;html=1;whiteSpace=wrap;connectable=0;fillColor=none;top=0;left=0;bottom=0;right=0;overflow=hidden;pointerEvents=1;" vertex="1" parent="HgxCiPOgafSefp3VaVC9-67">
          <mxGeometry x="208" width="122" height="40" as="geometry" />
        </mxCell>
        <mxCell id="HgxCiPOgafSefp3VaVC9-65" style="edgeStyle=orthogonalEdgeStyle;rounded=0;jumpStyle=none;orthogonalLoop=1;jettySize=auto;html=1;exitX=1;exitY=0.5;exitDx=0;exitDy=0;fontFamily=Georgia;fontSize=19;startArrow=ERzeroToMany;startFill=1;endArrow=ERzeroToMany;endFill=1;strokeColor=#FF3333;" edge="1" parent="1" source="HgxCiPOgafSefp3VaVC9-34" target="J84wWIYpIRQKEK9uiSm3-11">
          <mxGeometry relative="1" as="geometry" />
        </mxCell>
        <mxCell id="HgxCiPOgafSefp3VaVC9-66" value="&lt;p style=&quot;line-height: 150% ; font-size: 19px&quot;&gt;&lt;font style=&quot;font-size: 19px&quot;&gt;Даталогическое проектирование&lt;/font&gt;&lt;/p&gt;" style="text;html=1;align=center;verticalAlign=middle;whiteSpace=wrap;rounded=0;shadow=1;strokeColor=#d6b656;fillColor=#FFF6E6;fontFamily=Georgia;fontStyle=3;fontSize=19;" vertex="1" parent="1">
          <mxGeometry x="40" y="700" width="760" height="40" as="geometry" />
        </mxCell>
        <mxCell id="HgxCiPOgafSefp3VaVC9-190" style="edgeStyle=orthogonalEdgeStyle;rounded=0;jumpStyle=none;orthogonalLoop=1;jettySize=auto;html=1;exitX=0.5;exitY=0;exitDx=0;exitDy=0;entryX=0.524;entryY=0.978;entryDx=0;entryDy=0;entryPerimeter=0;fontFamily=Georgia;fontSize=19;startArrow=ERzeroToMany;startFill=1;endArrow=ERone;endFill=0;strokeColor=#FF3333;strokeWidth=2;" edge="1" parent="1" source="HgxCiPOgafSefp3VaVC9-96" target="J84wWIYpIRQKEK9uiSm3-7">
          <mxGeometry relative="1" as="geometry">
            <Array as="points">
              <mxPoint x="554" y="1540" />
              <mxPoint x="421" y="1540" />
            </Array>
          </mxGeometry>
        </mxCell>
        <mxCell id="HgxCiPOgafSefp3VaVC9-193" style="edgeStyle=orthogonalEdgeStyle;rounded=0;jumpStyle=none;orthogonalLoop=1;jettySize=auto;html=1;exitX=0.25;exitY=0;exitDx=0;exitDy=0;entryX=1;entryY=0.5;entryDx=0;entryDy=0;fontFamily=Georgia;fontSize=19;startArrow=none;startFill=0;endArrow=ERzeroToMany;endFill=1;strokeWidth=2;strokeColor=#007FFF;" edge="1" parent="1" source="HgxCiPOgafSefp3VaVC9-96" target="HgxCiPOgafSefp3VaVC9-126">
          <mxGeometry relative="1" as="geometry" />
        </mxCell>
        <mxCell id="HgxCiPOgafSefp3VaVC9-96" value="photos" style="shape=table;startSize=30;container=1;collapsible=0;childLayout=tableLayout;fontStyle=1;align=center;pointerEvents=1;" vertex="1" parent="1">
          <mxGeometry x="280" y="1820" width="547" height="130" as="geometry" />
        </mxCell>
        <mxCell id="HgxCiPOgafSefp3VaVC9-97" value="" style="shape=partialRectangle;html=1;whiteSpace=wrap;collapsible=0;dropTarget=0;pointerEvents=0;fillColor=none;top=0;left=0;bottom=0;right=0;points=[[0,0.5],[1,0.5]];portConstraint=eastwest;" vertex="1" parent="HgxCiPOgafSefp3VaVC9-96">
          <mxGeometry y="30" width="547" height="40" as="geometry" />
        </mxCell>
        <mxCell id="HgxCiPOgafSefp3VaVC9-98" value="Id" style="shape=partialRectangle;html=1;whiteSpace=wrap;connectable=0;fillColor=none;top=0;left=0;bottom=0;right=0;overflow=hidden;pointerEvents=1;" vertex="1" parent="HgxCiPOgafSefp3VaVC9-97">
          <mxGeometry width="33" height="40" as="geometry" />
        </mxCell>
        <mxCell id="HgxCiPOgafSefp3VaVC9-99" value="link" style="shape=partialRectangle;html=1;whiteSpace=wrap;connectable=0;fillColor=none;top=0;left=0;bottom=0;right=0;overflow=hidden;pointerEvents=1;" vertex="1" parent="HgxCiPOgafSefp3VaVC9-97">
          <mxGeometry x="33" width="104" height="40" as="geometry" />
        </mxCell>
        <mxCell id="HgxCiPOgafSefp3VaVC9-100" value="created_at" style="shape=partialRectangle;html=1;whiteSpace=wrap;connectable=0;fillColor=none;top=0;left=0;bottom=0;right=0;overflow=hidden;pointerEvents=1;" vertex="1" parent="HgxCiPOgafSefp3VaVC9-97">
          <mxGeometry x="137" width="62" height="40" as="geometry" />
        </mxCell>
        <mxCell id="HgxCiPOgafSefp3VaVC9-101" value="owner_id" style="shape=partialRectangle;html=1;whiteSpace=wrap;connectable=0;fillColor=none;top=0;left=0;bottom=0;right=0;overflow=hidden;pointerEvents=1;" vertex="1" parent="HgxCiPOgafSefp3VaVC9-97">
          <mxGeometry x="199" width="116" height="40" as="geometry" />
        </mxCell>
        <mxCell id="HgxCiPOgafSefp3VaVC9-107" value="publish_in" style="shape=partialRectangle;html=1;whiteSpace=wrap;connectable=0;fillColor=none;top=0;left=0;bottom=0;right=0;overflow=hidden;pointerEvents=1;" vertex="1" parent="HgxCiPOgafSefp3VaVC9-97">
          <mxGeometry x="315" width="116" height="40" as="geometry" />
        </mxCell>
        <mxCell id="HgxCiPOgafSefp3VaVC9-111" value="publisher" style="shape=partialRectangle;html=1;whiteSpace=wrap;connectable=0;fillColor=none;top=0;left=0;bottom=0;right=0;overflow=hidden;pointerEvents=1;" vertex="1" parent="HgxCiPOgafSefp3VaVC9-97">
          <mxGeometry x="431" width="116" height="40" as="geometry" />
        </mxCell>
        <mxCell id="HgxCiPOgafSefp3VaVC9-102" style="shape=partialRectangle;html=1;whiteSpace=wrap;collapsible=0;dropTarget=0;pointerEvents=0;fillColor=none;top=0;left=0;bottom=0;right=0;points=[[0,0.5],[1,0.5]];portConstraint=eastwest;" vertex="1" parent="HgxCiPOgafSefp3VaVC9-96">
          <mxGeometry y="70" width="547" height="60" as="geometry" />
        </mxCell>
        <mxCell id="HgxCiPOgafSefp3VaVC9-103" value="serial pk" style="shape=partialRectangle;html=1;whiteSpace=wrap;connectable=0;fillColor=none;top=0;left=0;bottom=0;right=0;overflow=hidden;pointerEvents=1;" vertex="1" parent="HgxCiPOgafSefp3VaVC9-102">
          <mxGeometry width="33" height="60" as="geometry" />
        </mxCell>
        <mxCell id="HgxCiPOgafSefp3VaVC9-104" value="text" style="shape=partialRectangle;html=1;whiteSpace=wrap;connectable=0;fillColor=none;top=0;left=0;bottom=0;right=0;overflow=hidden;pointerEvents=1;" vertex="1" parent="HgxCiPOgafSefp3VaVC9-102">
          <mxGeometry x="33" width="104" height="60" as="geometry" />
        </mxCell>
        <mxCell id="HgxCiPOgafSefp3VaVC9-105" value="timestamp" style="shape=partialRectangle;html=1;whiteSpace=wrap;connectable=0;fillColor=none;top=0;left=0;bottom=0;right=0;overflow=hidden;pointerEvents=1;" vertex="1" parent="HgxCiPOgafSefp3VaVC9-102">
          <mxGeometry x="137" width="62" height="60" as="geometry" />
        </mxCell>
        <mxCell id="HgxCiPOgafSefp3VaVC9-106" value="integer reference users" style="shape=partialRectangle;html=1;whiteSpace=wrap;connectable=0;fillColor=none;top=0;left=0;bottom=0;right=0;overflow=hidden;pointerEvents=1;" vertex="1" parent="HgxCiPOgafSefp3VaVC9-102">
          <mxGeometry x="199" width="116" height="60" as="geometry" />
        </mxCell>
        <mxCell id="HgxCiPOgafSefp3VaVC9-108" value="text check(any [&#39;gallery&#39;, &#39;story&#39;, &#39;avatar&#39;] ) not null" style="shape=partialRectangle;html=1;whiteSpace=wrap;connectable=0;fillColor=none;top=0;left=0;bottom=0;right=0;overflow=hidden;pointerEvents=1;" vertex="1" parent="HgxCiPOgafSefp3VaVC9-102">
          <mxGeometry x="315" width="116" height="60" as="geometry" />
        </mxCell>
        <mxCell id="HgxCiPOgafSefp3VaVC9-112" value="&lt;span style=&quot;color: rgb(0 , 0 , 0) ; font-family: &amp;#34;helvetica&amp;#34; ; font-size: 12px ; font-style: normal ; font-weight: 400 ; letter-spacing: normal ; text-align: center ; text-indent: 0px ; text-transform: none ; word-spacing: 0px ; background-color: rgb(248 , 249 , 250) ; display: inline ; float: none&quot;&gt;text check(any [&#39;person&#39;, &#39;group&#39;] ) not null&lt;/span&gt;" style="shape=partialRectangle;html=1;whiteSpace=wrap;connectable=0;fillColor=none;top=0;left=0;bottom=0;right=0;overflow=hidden;pointerEvents=1;" vertex="1" parent="HgxCiPOgafSefp3VaVC9-102">
          <mxGeometry x="431" width="116" height="60" as="geometry" />
        </mxCell>
        <mxCell id="HgxCiPOgafSefp3VaVC9-188" style="edgeStyle=orthogonalEdgeStyle;rounded=0;jumpStyle=none;orthogonalLoop=1;jettySize=auto;html=1;exitX=0.25;exitY=0;exitDx=0;exitDy=0;fontFamily=Georgia;fontSize=19;startArrow=ERzeroToMany;startFill=1;endArrow=ERone;endFill=0;strokeColor=#FF3333;strokeWidth=2;" edge="1" parent="1" source="HgxCiPOgafSefp3VaVC9-133" target="J84wWIYpIRQKEK9uiSm3-7">
          <mxGeometry relative="1" as="geometry">
            <Array as="points">
              <mxPoint x="574" y="1130" />
              <mxPoint x="475" y="1130" />
            </Array>
          </mxGeometry>
        </mxCell>
        <mxCell id="HgxCiPOgafSefp3VaVC9-194" style="edgeStyle=orthogonalEdgeStyle;rounded=0;jumpStyle=none;orthogonalLoop=1;jettySize=auto;html=1;entryX=1;entryY=0.5;entryDx=0;entryDy=0;fontFamily=Georgia;fontSize=19;startArrow=none;startFill=0;endArrow=ERzeroToMany;endFill=1;strokeWidth=2;exitX=0.561;exitY=0.99;exitDx=0;exitDy=0;exitPerimeter=0;strokeColor=#007FFF;" edge="1" parent="1" source="HgxCiPOgafSefp3VaVC9-139" target="HgxCiPOgafSefp3VaVC9-119">
          <mxGeometry relative="1" as="geometry">
            <mxPoint x="680" y="1483" as="sourcePoint" />
          </mxGeometry>
        </mxCell>
        <mxCell id="HgxCiPOgafSefp3VaVC9-195" style="edgeStyle=orthogonalEdgeStyle;rounded=0;jumpStyle=none;orthogonalLoop=1;jettySize=auto;html=1;exitX=0.851;exitY=1.064;exitDx=0;exitDy=0;entryX=0.75;entryY=0;entryDx=0;entryDy=0;fontFamily=Georgia;fontSize=19;startArrow=ERzeroToMany;startFill=1;endArrow=none;endFill=0;strokeWidth=2;exitPerimeter=0;strokeColor=#00FF00;" edge="1" parent="1" source="HgxCiPOgafSefp3VaVC9-139" target="HgxCiPOgafSefp3VaVC9-96">
          <mxGeometry relative="1" as="geometry">
            <Array as="points">
              <mxPoint x="777" y="1650" />
              <mxPoint x="690" y="1650" />
            </Array>
          </mxGeometry>
        </mxCell>
        <mxCell id="HgxCiPOgafSefp3VaVC9-133" value="comments" style="shape=table;startSize=30;container=1;collapsible=0;childLayout=tableLayout;fontStyle=1;align=center;pointerEvents=1;" vertex="1" parent="1">
          <mxGeometry x="490" y="1350" width="337" height="130" as="geometry" />
        </mxCell>
        <mxCell id="HgxCiPOgafSefp3VaVC9-134" value="" style="shape=partialRectangle;html=1;whiteSpace=wrap;collapsible=0;dropTarget=0;pointerEvents=0;fillColor=none;top=0;left=0;bottom=0;right=0;points=[[0,0.5],[1,0.5]];portConstraint=eastwest;" vertex="1" parent="HgxCiPOgafSefp3VaVC9-133">
          <mxGeometry y="30" width="337" height="40" as="geometry" />
        </mxCell>
        <mxCell id="HgxCiPOgafSefp3VaVC9-135" value="Id" style="shape=partialRectangle;html=1;whiteSpace=wrap;connectable=0;fillColor=none;top=0;left=0;bottom=0;right=0;overflow=hidden;pointerEvents=1;" vertex="1" parent="HgxCiPOgafSefp3VaVC9-134">
          <mxGeometry width="23" height="40" as="geometry" />
        </mxCell>
        <mxCell id="HgxCiPOgafSefp3VaVC9-136" value="owner_id" style="shape=partialRectangle;html=1;whiteSpace=wrap;connectable=0;fillColor=none;top=0;left=0;bottom=0;right=0;overflow=hidden;pointerEvents=1;" vertex="1" parent="HgxCiPOgafSefp3VaVC9-134">
          <mxGeometry x="23" width="110" height="40" as="geometry" />
        </mxCell>
        <mxCell id="HgxCiPOgafSefp3VaVC9-137" value="object_type" style="shape=partialRectangle;html=1;whiteSpace=wrap;connectable=0;fillColor=none;top=0;left=0;bottom=0;right=0;overflow=hidden;pointerEvents=1;" vertex="1" parent="HgxCiPOgafSefp3VaVC9-134">
          <mxGeometry x="133" width="118" height="40" as="geometry" />
        </mxCell>
        <mxCell id="HgxCiPOgafSefp3VaVC9-138" value="object_id" style="shape=partialRectangle;html=1;whiteSpace=wrap;connectable=0;fillColor=none;top=0;left=0;bottom=0;right=0;overflow=hidden;pointerEvents=1;" vertex="1" parent="HgxCiPOgafSefp3VaVC9-134">
          <mxGeometry x="251" width="86" height="40" as="geometry" />
        </mxCell>
        <mxCell id="HgxCiPOgafSefp3VaVC9-139" style="shape=partialRectangle;html=1;whiteSpace=wrap;collapsible=0;dropTarget=0;pointerEvents=0;fillColor=none;top=0;left=0;bottom=0;right=0;points=[[0,0.5],[1,0.5]];portConstraint=eastwest;" vertex="1" parent="HgxCiPOgafSefp3VaVC9-133">
          <mxGeometry y="70" width="337" height="60" as="geometry" />
        </mxCell>
        <mxCell id="HgxCiPOgafSefp3VaVC9-140" value="serial pk" style="shape=partialRectangle;html=1;whiteSpace=wrap;connectable=0;fillColor=none;top=0;left=0;bottom=0;right=0;overflow=hidden;pointerEvents=1;" vertex="1" parent="HgxCiPOgafSefp3VaVC9-139">
          <mxGeometry width="23" height="60" as="geometry" />
        </mxCell>
        <mxCell id="HgxCiPOgafSefp3VaVC9-141" value="integer reference users" style="shape=partialRectangle;html=1;whiteSpace=wrap;connectable=0;fillColor=none;top=0;left=0;bottom=0;right=0;overflow=hidden;pointerEvents=1;" vertex="1" parent="HgxCiPOgafSefp3VaVC9-139">
          <mxGeometry x="23" width="110" height="60" as="geometry" />
        </mxCell>
        <mxCell id="HgxCiPOgafSefp3VaVC9-142" value="text check(any [&#39;photo&#39;, &#39;video&#39;, &#39;discussion&#39;] ) not null" style="shape=partialRectangle;html=1;whiteSpace=wrap;connectable=0;fillColor=none;top=0;left=0;bottom=0;right=0;overflow=hidden;pointerEvents=1;" vertex="1" parent="HgxCiPOgafSefp3VaVC9-139">
          <mxGeometry x="133" width="118" height="60" as="geometry" />
        </mxCell>
        <mxCell id="HgxCiPOgafSefp3VaVC9-143" value="&lt;span style=&quot;color: rgb(0 , 0 , 0) ; font-family: &amp;#34;helvetica&amp;#34; ; font-size: 12px ; font-style: normal ; font-weight: 400 ; letter-spacing: normal ; text-align: center ; text-indent: 0px ; text-transform: none ; word-spacing: 0px ; background-color: rgb(248 , 249 , 250) ; display: inline ; float: none&quot;&gt;integer not null&lt;/span&gt;" style="shape=partialRectangle;html=1;whiteSpace=wrap;connectable=0;fillColor=none;top=0;left=0;bottom=0;right=0;overflow=hidden;pointerEvents=1;" vertex="1" parent="HgxCiPOgafSefp3VaVC9-139">
          <mxGeometry x="251" width="86" height="60" as="geometry" />
        </mxCell>
        <mxCell id="HgxCiPOgafSefp3VaVC9-191" style="edgeStyle=orthogonalEdgeStyle;rounded=0;jumpStyle=none;orthogonalLoop=1;jettySize=auto;html=1;exitX=0.25;exitY=0;exitDx=0;exitDy=0;fontFamily=Georgia;fontSize=19;startArrow=ERzeroToMany;startFill=1;endArrow=ERone;endFill=0;strokeColor=#FF3333;strokeWidth=2;" edge="1" parent="1" source="HgxCiPOgafSefp3VaVC9-147" target="J84wWIYpIRQKEK9uiSm3-7">
          <mxGeometry relative="1" as="geometry">
            <Array as="points">
              <mxPoint x="160" y="1740" />
              <mxPoint x="369" y="1740" />
            </Array>
          </mxGeometry>
        </mxCell>
        <mxCell id="HgxCiPOgafSefp3VaVC9-147" value="videos" style="shape=table;startSize=30;container=1;collapsible=0;childLayout=tableLayout;fontStyle=1;align=center;pointerEvents=1;" vertex="1" parent="1">
          <mxGeometry y="2020" width="640" height="140" as="geometry" />
        </mxCell>
        <mxCell id="HgxCiPOgafSefp3VaVC9-148" value="" style="shape=partialRectangle;html=1;whiteSpace=wrap;collapsible=0;dropTarget=0;pointerEvents=0;fillColor=none;top=0;left=0;bottom=0;right=0;points=[[0,0.5],[1,0.5]];portConstraint=eastwest;" vertex="1" parent="HgxCiPOgafSefp3VaVC9-147">
          <mxGeometry y="30" width="640" height="44" as="geometry" />
        </mxCell>
        <mxCell id="HgxCiPOgafSefp3VaVC9-149" value="Id" style="shape=partialRectangle;html=1;whiteSpace=wrap;connectable=0;fillColor=none;top=0;left=0;bottom=0;right=0;overflow=hidden;pointerEvents=1;" vertex="1" parent="HgxCiPOgafSefp3VaVC9-148">
          <mxGeometry width="40" height="44" as="geometry" />
        </mxCell>
        <mxCell id="HgxCiPOgafSefp3VaVC9-150" value="link" style="shape=partialRectangle;html=1;whiteSpace=wrap;connectable=0;fillColor=none;top=0;left=0;bottom=0;right=0;overflow=hidden;pointerEvents=1;" vertex="1" parent="HgxCiPOgafSefp3VaVC9-148">
          <mxGeometry x="40" width="69" height="44" as="geometry" />
        </mxCell>
        <mxCell id="HgxCiPOgafSefp3VaVC9-163" value="preview_link" style="shape=partialRectangle;html=1;whiteSpace=wrap;connectable=0;fillColor=none;top=0;left=0;bottom=0;right=0;overflow=hidden;pointerEvents=1;" vertex="1" parent="HgxCiPOgafSefp3VaVC9-148">
          <mxGeometry x="109" width="90" height="44" as="geometry" />
        </mxCell>
        <mxCell id="HgxCiPOgafSefp3VaVC9-151" value="created_at" style="shape=partialRectangle;html=1;whiteSpace=wrap;connectable=0;fillColor=none;top=0;left=0;bottom=0;right=0;overflow=hidden;pointerEvents=1;" vertex="1" parent="HgxCiPOgafSefp3VaVC9-148">
          <mxGeometry x="199" width="91" height="44" as="geometry" />
        </mxCell>
        <mxCell id="HgxCiPOgafSefp3VaVC9-152" value="owner_id" style="shape=partialRectangle;html=1;whiteSpace=wrap;connectable=0;fillColor=none;top=0;left=0;bottom=0;right=0;overflow=hidden;pointerEvents=1;" vertex="1" parent="HgxCiPOgafSefp3VaVC9-148">
          <mxGeometry x="290" width="123" height="44" as="geometry" />
        </mxCell>
        <mxCell id="HgxCiPOgafSefp3VaVC9-153" value="publish_in" style="shape=partialRectangle;html=1;whiteSpace=wrap;connectable=0;fillColor=none;top=0;left=0;bottom=0;right=0;overflow=hidden;pointerEvents=1;" vertex="1" parent="HgxCiPOgafSefp3VaVC9-148">
          <mxGeometry x="413" width="113" height="44" as="geometry" />
        </mxCell>
        <mxCell id="HgxCiPOgafSefp3VaVC9-154" value="publisher" style="shape=partialRectangle;html=1;whiteSpace=wrap;connectable=0;fillColor=none;top=0;left=0;bottom=0;right=0;overflow=hidden;pointerEvents=1;" vertex="1" parent="HgxCiPOgafSefp3VaVC9-148">
          <mxGeometry x="526" width="114" height="44" as="geometry" />
        </mxCell>
        <mxCell id="HgxCiPOgafSefp3VaVC9-155" style="shape=partialRectangle;html=1;whiteSpace=wrap;collapsible=0;dropTarget=0;pointerEvents=0;fillColor=none;top=0;left=0;bottom=0;right=0;points=[[0,0.5],[1,0.5]];portConstraint=eastwest;" vertex="1" parent="HgxCiPOgafSefp3VaVC9-147">
          <mxGeometry y="74" width="640" height="66" as="geometry" />
        </mxCell>
        <mxCell id="HgxCiPOgafSefp3VaVC9-156" value="serial pk" style="shape=partialRectangle;html=1;whiteSpace=wrap;connectable=0;fillColor=none;top=0;left=0;bottom=0;right=0;overflow=hidden;pointerEvents=1;" vertex="1" parent="HgxCiPOgafSefp3VaVC9-155">
          <mxGeometry width="40" height="66" as="geometry" />
        </mxCell>
        <mxCell id="HgxCiPOgafSefp3VaVC9-157" value="text" style="shape=partialRectangle;html=1;whiteSpace=wrap;connectable=0;fillColor=none;top=0;left=0;bottom=0;right=0;overflow=hidden;pointerEvents=1;" vertex="1" parent="HgxCiPOgafSefp3VaVC9-155">
          <mxGeometry x="40" width="69" height="66" as="geometry" />
        </mxCell>
        <mxCell id="HgxCiPOgafSefp3VaVC9-164" value="text" style="shape=partialRectangle;html=1;whiteSpace=wrap;connectable=0;fillColor=none;top=0;left=0;bottom=0;right=0;overflow=hidden;pointerEvents=1;" vertex="1" parent="HgxCiPOgafSefp3VaVC9-155">
          <mxGeometry x="109" width="90" height="66" as="geometry" />
        </mxCell>
        <mxCell id="HgxCiPOgafSefp3VaVC9-158" value="timestamp" style="shape=partialRectangle;html=1;whiteSpace=wrap;connectable=0;fillColor=none;top=0;left=0;bottom=0;right=0;overflow=hidden;pointerEvents=1;" vertex="1" parent="HgxCiPOgafSefp3VaVC9-155">
          <mxGeometry x="199" width="91" height="66" as="geometry" />
        </mxCell>
        <mxCell id="HgxCiPOgafSefp3VaVC9-159" value="integer reference users" style="shape=partialRectangle;html=1;whiteSpace=wrap;connectable=0;fillColor=none;top=0;left=0;bottom=0;right=0;overflow=hidden;pointerEvents=1;" vertex="1" parent="HgxCiPOgafSefp3VaVC9-155">
          <mxGeometry x="290" width="123" height="66" as="geometry" />
        </mxCell>
        <mxCell id="HgxCiPOgafSefp3VaVC9-160" value="text check(any [&#39;gallery&#39;, &#39;story&#39;] ) not null" style="shape=partialRectangle;html=1;whiteSpace=wrap;connectable=0;fillColor=none;top=0;left=0;bottom=0;right=0;overflow=hidden;pointerEvents=1;" vertex="1" parent="HgxCiPOgafSefp3VaVC9-155">
          <mxGeometry x="413" width="113" height="66" as="geometry" />
        </mxCell>
        <mxCell id="HgxCiPOgafSefp3VaVC9-161" value="&lt;span style=&quot;color: rgb(0 , 0 , 0) ; font-family: &amp;#34;helvetica&amp;#34; ; font-size: 12px ; font-style: normal ; font-weight: 400 ; letter-spacing: normal ; text-align: center ; text-indent: 0px ; text-transform: none ; word-spacing: 0px ; background-color: rgb(248 , 249 , 250) ; display: inline ; float: none&quot;&gt;text check(any [&#39;person&#39;, &#39;group&#39;] ) not null&lt;/span&gt;" style="shape=partialRectangle;html=1;whiteSpace=wrap;connectable=0;fillColor=none;top=0;left=0;bottom=0;right=0;overflow=hidden;pointerEvents=1;" vertex="1" parent="HgxCiPOgafSefp3VaVC9-155">
          <mxGeometry x="526" width="114" height="66" as="geometry" />
        </mxCell>
        <mxCell id="HgxCiPOgafSefp3VaVC9-187" style="edgeStyle=orthogonalEdgeStyle;rounded=0;jumpStyle=none;orthogonalLoop=1;jettySize=auto;html=1;exitX=0.25;exitY=0;exitDx=0;exitDy=0;entryX=0;entryY=0.5;entryDx=0;entryDy=0;fontFamily=Georgia;fontSize=19;startArrow=ERzeroToMany;startFill=1;endArrow=ERone;endFill=0;strokeColor=#FF3333;strokeWidth=2;" edge="1" parent="1" source="HgxCiPOgafSefp3VaVC9-166" target="J84wWIYpIRQKEK9uiSm3-7">
          <mxGeometry relative="1" as="geometry">
            <Array as="points">
              <mxPoint x="68" y="1040" />
              <mxPoint x="60" y="1040" />
              <mxPoint x="60" y="890" />
            </Array>
          </mxGeometry>
        </mxCell>
        <mxCell id="HgxCiPOgafSefp3VaVC9-166" value="user_friends" style="shape=table;startSize=30;container=1;collapsible=0;childLayout=tableLayout;fontStyle=1;align=center;pointerEvents=1;" vertex="1" parent="1">
          <mxGeometry y="1169" width="270" height="121" as="geometry" />
        </mxCell>
        <mxCell id="HgxCiPOgafSefp3VaVC9-167" value="" style="shape=partialRectangle;html=1;whiteSpace=wrap;collapsible=0;dropTarget=0;pointerEvents=0;fillColor=none;top=0;left=0;bottom=0;right=0;points=[[0,0.5],[1,0.5]];portConstraint=eastwest;" vertex="1" parent="HgxCiPOgafSefp3VaVC9-166">
          <mxGeometry y="30" width="270" height="40" as="geometry" />
        </mxCell>
        <mxCell id="HgxCiPOgafSefp3VaVC9-168" value="Id" style="shape=partialRectangle;html=1;whiteSpace=wrap;connectable=0;fillColor=none;top=0;left=0;bottom=0;right=0;overflow=hidden;pointerEvents=1;" vertex="1" parent="HgxCiPOgafSefp3VaVC9-167">
          <mxGeometry width="39" height="40" as="geometry" />
        </mxCell>
        <mxCell id="HgxCiPOgafSefp3VaVC9-169" value="user_id" style="shape=partialRectangle;html=1;whiteSpace=wrap;connectable=0;fillColor=none;top=0;left=0;bottom=0;right=0;overflow=hidden;pointerEvents=1;" vertex="1" parent="HgxCiPOgafSefp3VaVC9-167">
          <mxGeometry x="39" width="86" height="40" as="geometry" />
        </mxCell>
        <mxCell id="HgxCiPOgafSefp3VaVC9-170" value="friend_id" style="shape=partialRectangle;html=1;whiteSpace=wrap;connectable=0;fillColor=none;top=0;left=0;bottom=0;right=0;overflow=hidden;pointerEvents=1;" vertex="1" parent="HgxCiPOgafSefp3VaVC9-167">
          <mxGeometry x="125" width="78" height="40" as="geometry" />
        </mxCell>
        <mxCell id="HgxCiPOgafSefp3VaVC9-171" value="created_at" style="shape=partialRectangle;html=1;whiteSpace=wrap;connectable=0;fillColor=none;top=0;left=0;bottom=0;right=0;overflow=hidden;pointerEvents=1;" vertex="1" parent="HgxCiPOgafSefp3VaVC9-167">
          <mxGeometry x="203" width="67" height="40" as="geometry" />
        </mxCell>
        <mxCell id="HgxCiPOgafSefp3VaVC9-174" value="" style="shape=partialRectangle;html=1;whiteSpace=wrap;collapsible=0;dropTarget=0;pointerEvents=0;fillColor=none;top=0;left=0;bottom=0;right=0;points=[[0,0.5],[1,0.5]];portConstraint=eastwest;" vertex="1" parent="HgxCiPOgafSefp3VaVC9-166">
          <mxGeometry y="70" width="270" height="51" as="geometry" />
        </mxCell>
        <mxCell id="HgxCiPOgafSefp3VaVC9-175" value="serial pk" style="shape=partialRectangle;html=1;whiteSpace=wrap;connectable=0;fillColor=none;top=0;left=0;bottom=0;right=0;overflow=hidden;pointerEvents=1;" vertex="1" parent="HgxCiPOgafSefp3VaVC9-174">
          <mxGeometry width="39" height="51" as="geometry" />
        </mxCell>
        <mxCell id="HgxCiPOgafSefp3VaVC9-176" value="integer reference users" style="shape=partialRectangle;html=1;whiteSpace=wrap;connectable=0;fillColor=none;top=0;left=0;bottom=0;right=0;overflow=hidden;pointerEvents=1;" vertex="1" parent="HgxCiPOgafSefp3VaVC9-174">
          <mxGeometry x="39" width="86" height="51" as="geometry" />
        </mxCell>
        <mxCell id="HgxCiPOgafSefp3VaVC9-177" value="integer reference users" style="shape=partialRectangle;html=1;whiteSpace=wrap;connectable=0;fillColor=none;top=0;left=0;bottom=0;right=0;overflow=hidden;pointerEvents=1;" vertex="1" parent="HgxCiPOgafSefp3VaVC9-174">
          <mxGeometry x="125" width="78" height="51" as="geometry" />
        </mxCell>
        <mxCell id="HgxCiPOgafSefp3VaVC9-178" value="timestamp" style="shape=partialRectangle;html=1;whiteSpace=wrap;connectable=0;fillColor=none;top=0;left=0;bottom=0;right=0;overflow=hidden;pointerEvents=1;" vertex="1" parent="HgxCiPOgafSefp3VaVC9-174">
          <mxGeometry x="203" width="67" height="51" as="geometry" />
        </mxCell>
        <mxCell id="HgxCiPOgafSefp3VaVC9-196" style="edgeStyle=orthogonalEdgeStyle;rounded=0;jumpStyle=none;orthogonalLoop=1;jettySize=auto;html=1;entryX=0.391;entryY=0;entryDx=0;entryDy=0;entryPerimeter=0;fontFamily=Georgia;fontSize=19;startArrow=ERzeroToMany;startFill=1;endArrow=none;endFill=0;strokeColor=#00FF00;strokeWidth=2;exitX=0.104;exitY=0.995;exitDx=0;exitDy=0;exitPerimeter=0;" edge="1" parent="1" source="HgxCiPOgafSefp3VaVC9-139" target="HgxCiPOgafSefp3VaVC9-147">
          <mxGeometry relative="1" as="geometry">
            <mxPoint x="490" y="1450" as="sourcePoint" />
            <Array as="points">
              <mxPoint x="525" y="1770" />
              <mxPoint x="250" y="1770" />
            </Array>
          </mxGeometry>
        </mxCell>
        <mxCell id="HgxCiPOgafSefp3VaVC9-197" style="edgeStyle=orthogonalEdgeStyle;rounded=0;jumpStyle=none;orthogonalLoop=1;jettySize=auto;html=1;exitX=0.107;exitY=1;exitDx=0;exitDy=0;fontFamily=Georgia;fontSize=19;startArrow=none;startFill=0;endArrow=ERzeroToMany;endFill=1;strokeWidth=2;exitPerimeter=0;" edge="1" parent="1" source="HgxCiPOgafSefp3VaVC9-67" target="HgxCiPOgafSefp3VaVC9-96">
          <mxGeometry relative="1" as="geometry">
            <mxPoint x="476" y="1820" as="targetPoint" />
            <Array as="points">
              <mxPoint x="532" y="1230" />
              <mxPoint x="476" y="1230" />
            </Array>
          </mxGeometry>
        </mxCell>
        <mxCell id="HgxCiPOgafSefp3VaVC9-198" style="edgeStyle=orthogonalEdgeStyle;rounded=0;jumpStyle=none;orthogonalLoop=1;jettySize=auto;html=1;exitX=0;exitY=0.5;exitDx=0;exitDy=0;entryX=0.317;entryY=0.009;entryDx=0;entryDy=0;entryPerimeter=0;fontFamily=Georgia;fontSize=19;startArrow=none;startFill=0;endArrow=ERzeroToMany;endFill=1;strokeColor=#000000;strokeWidth=2;" edge="1" parent="1" source="HgxCiPOgafSefp3VaVC9-67" target="HgxCiPOgafSefp3VaVC9-147">
          <mxGeometry relative="1" as="geometry">
            <Array as="points">
              <mxPoint x="450" y="1090" />
              <mxPoint x="450" y="1800" />
              <mxPoint x="203" y="1800" />
            </Array>
          </mxGeometry>
        </mxCell>
      </root>
    </mxGraphModel>
  </diagram>
</mxfile>
